<svg width="28" height="24" viewBox="0 0 28 24" fill="currentColor" xmlns="http://www.w3.org/2000/svg">
<path d="M21.6364 0H6.36363C4.91753 0.00173221 3.53115 0.576962 2.5086 1.59951C1.48605 2.62206 0.91082 4.00844 0.909088 5.45455L0.909088 18.5455C0.91082 19.9916 1.48605 21.3779 2.5086 22.4005C3.53115 23.423 4.91753 23.9983 6.36363 24H21.6364C23.0825 23.9983 24.4688 23.423 25.4914 22.4005C26.5139 21.3779 27.0892 19.9916 27.0909 18.5455V5.45455C27.0892 4.00844 26.5139 2.62206 25.4914 1.59951C24.4688 0.576962 23.0825 0.00173221 21.6364 0ZM6.36363 2.18182H21.6364C22.5043 2.18182 23.3368 2.52662 23.9505 3.14038C24.5643 3.75413 24.9091 4.58656 24.9091 5.45455V6.54545H3.09091V5.45455C3.09091 4.58656 3.43571 3.75413 4.04947 3.14038C4.66322 2.52662 5.49565 2.18182 6.36363 2.18182ZM21.6364 21.8182H6.36363C5.49565 21.8182 4.66322 21.4734 4.04947 20.8596C3.43571 20.2459 3.09091 19.4134 3.09091 18.5455V8.72727H24.9091V18.5455C24.9091 19.4134 24.5643 20.2459 23.9505 20.8596C23.3368 21.4734 22.5043 21.8182 21.6364 21.8182ZM21.6364 13.0909C21.6364 13.3802 21.5214 13.6577 21.3168 13.8623C21.1123 14.0669 20.8348 14.1818 20.5455 14.1818H7.45454C7.16522 14.1818 6.88774 14.0669 6.68315 13.8623C6.47857 13.6577 6.36363 13.3802 6.36363 13.0909C6.36363 12.8016 6.47857 12.5241 6.68315 12.3195C6.88774 12.1149 7.16522 12 7.45454 12H20.5455C20.8348 12 21.1123 12.1149 21.3168 12.3195C21.5214 12.5241 21.6364 12.8016 21.6364 13.0909ZM17.2727 17.4545C17.2727 17.7439 17.1578 18.0214 16.9532 18.2259C16.7486 18.4305 16.4711 18.5455 16.1818 18.5455H7.45454C7.16522 18.5455 6.88774 18.4305 6.68315 18.2259C6.47857 18.0214 6.36363 17.7439 6.36363 17.4545C6.36363 17.1652 6.47857 16.8877 6.68315 16.6832C6.88774 16.4786 7.16522 16.3636 7.45454 16.3636H16.1818C16.4711 16.3636 16.7486 16.4786 16.9532 16.6832C17.1578 16.8877 17.2727 17.1652 17.2727 17.4545ZM4.18182 4.36364C4.18182 4.14787 4.2458 3.93696 4.36567 3.75756C4.48554 3.57816 4.65591 3.43834 4.85525 3.35577C5.05459 3.2732 5.27393 3.2516 5.48555 3.29369C5.69717 3.33578 5.89155 3.43968 6.04411 3.59225C6.19668 3.74481 6.30058 3.9392 6.34267 4.15081C6.38477 4.36243 6.36316 4.58177 6.28059 4.78111C6.19803 4.98045 6.0582 5.15082 5.8788 5.27069C5.6994 5.39056 5.48849 5.45455 5.27272 5.45455C4.9834 5.45455 4.70592 5.33961 4.50134 5.13503C4.29675 4.93044 4.18182 4.65296 4.18182 4.36364ZM7.45454 4.36364C7.45454 4.14787 7.51852 3.93696 7.63839 3.75756C7.75827 3.57816 7.92864 3.43834 8.12798 3.35577C8.32732 3.2732 8.54666 3.2516 8.75828 3.29369C8.96989 3.33578 9.16427 3.43968 9.31684 3.59225C9.46941 3.74481 9.57331 3.9392 9.6154 4.15081C9.65749 4.36243 9.63589 4.58177 9.55332 4.78111C9.47075 4.98045 9.33093 5.15082 9.15153 5.27069C8.97213 5.39056 8.76121 5.45455 8.54545 5.45455C8.25612 5.45455 7.97865 5.33961 7.77406 5.13503C7.56948 4.93044 7.45454 4.65296 7.45454 4.36364ZM10.7273 4.36364C10.7273 4.14787 10.7913 3.93696 10.9111 3.75756C11.031 3.57816 11.2014 3.43834 11.4007 3.35577C11.6 3.2732 11.8194 3.2516 12.031 3.29369C12.2426 3.33578 12.437 3.43968 12.5896 3.59225C12.7421 3.74481 12.846 3.9392 12.8881 4.15081C12.9302 4.36243 12.9086 4.58177 12.826 4.78111C12.7435 4.98045 12.6037 5.15082 12.4243 5.27069C12.2449 5.39056 12.0339 5.45455 11.8182 5.45455C11.5289 5.45455 11.2514 5.33961 11.0468 5.13503C10.8422 4.93044 10.7273 4.65296 10.7273 4.36364Z" />
</svg>
