<svg width="24" height="23" viewBox="0 0 24 23" fill="none" xmlns="http://www.w3.org/2000/svg">
<path d="M22.9 7.95501C22.5689 7.78723 22.1975 7.71554 21.8277 7.74806C21.458 7.78058 21.1047 7.91601 20.808 8.13901L18.975 9.50001C18.8495 8.2673 18.2714 7.1249 17.3525 6.2937C16.4336 5.4625 15.2391 5.00157 14 5.00001H13.915L9.793 0.879014C9.51528 0.59935 9.18478 0.377636 8.82068 0.226742C8.45658 0.0758485 8.06613 -0.00121862 7.672 1.45687e-05H1C0.734784 1.45687e-05 0.48043 0.105371 0.292893 0.292908C0.105357 0.480444 0 0.734798 0 1.00001C0 1.26523 0.105357 1.51959 0.292893 1.70712C0.48043 1.89466 0.734784 2.00001 1 2.00001H7.672C7.93706 2.00073 8.19114 2.10602 8.379 2.29301L11.086 5.00001H5C3.67441 5.0016 2.40356 5.5289 1.46622 6.46623C0.528882 7.40357 0.00158786 8.67442 0 10L0 18C0.00158786 19.3256 0.528882 20.5965 1.46622 21.5338C2.40356 22.4711 3.67441 22.9984 5 23H14C15.2391 22.9985 16.4336 22.5375 17.3525 21.7063C18.2714 20.8751 18.8495 19.7327 18.975 18.5L20.805 19.864C21.1021 20.0869 21.4555 20.2226 21.8254 20.2559C22.1953 20.2893 22.5672 20.219 22.8994 20.0529C23.2316 19.8868 23.511 19.6314 23.7063 19.3155C23.9016 18.9995 24.005 18.6354 24.005 18.264V9.74301C24.0063 9.3715 23.9034 9.00707 23.7081 8.69104C23.5128 8.375 23.2329 8.12003 22.9 7.95501ZM17 18C17 18.7957 16.6839 19.5587 16.1213 20.1213C15.5587 20.6839 14.7956 21 14 21H5C4.20435 21 3.44129 20.6839 2.87868 20.1213C2.31607 19.5587 2 18.7957 2 18V10C2 9.20436 2.31607 8.4413 2.87868 7.87869C3.44129 7.31608 4.20435 7.00001 5 7.00001H14C14.7956 7.00001 15.5587 7.31608 16.1213 7.87869C16.6839 8.4413 17 9.20436 17 10V18ZM22 18.257L19 16.021V11.979L22 9.74301V18.257Z" fill="#111238"/>
</svg>
